<?xml version="1.0" encoding="UTF-8" standalone="no"?>
<!DOCTYPE svg PUBLIC "-//W3C//DTD SVG 1.1//EN" "http://www.w3.org/Graphics/SVG/1.1/DTD/svg11.dtd">
<svg width="100%" height="100%" viewBox="0 0 274 246" version="1.1" xmlns="http://www.w3.org/2000/svg" xmlns:xlink="http://www.w3.org/1999/xlink" xml:space="preserve" xmlns:serif="http://www.serif.com/" style="fill-rule:evenodd;clip-rule:evenodd;stroke-linejoin:round;stroke-miterlimit:2;">
    <g transform="matrix(1,0,0,1,-2419.366935,-1251.032403)">
        <g transform="matrix(1,0,0,1,1791.397982,85.938512)">
            <g transform="matrix(0.3375,0,-0.124454,0.341935,569.252677,841.810811)">
                <path d="M993,1139.2L993,1281.8C993,1285.222 990.185,1288 986.719,1288L789.281,1288C785.815,1288 783,1285.222 783,1281.8L783,1139.2C783,1135.778 785.815,1133 789.281,1133L986.719,1133C990.185,1133 993,1135.778 993,1139.2Z" style="fill:white;"/>
            </g>
            <g transform="matrix(0.889881,0,-0.124454,0.341935,159.168594,777.680987)">
                <path d="M993,1139.2L993,1281.8C993,1285.222 991.933,1288 990.618,1288L785.382,1288C784.067,1288 783,1285.222 783,1281.8L783,1139.2C783,1135.778 784.067,1133 785.382,1133L990.618,1133C991.933,1133 993,1135.778 993,1139.2Z" style="fill:white;"/>
            </g>
            <g transform="matrix(0.332738,0,-0.124454,0.341935,712.742848,841.884791)">
                <path d="M993,1139.2L993,1281.8C993,1285.222 990.145,1288 986.629,1288L789.371,1288C785.855,1288 783,1285.222 783,1281.8L783,1139.2C783,1135.778 785.855,1133 789.371,1133L986.629,1133C990.145,1133 993,1135.778 993,1139.2Z" style="fill:rgb(229,254,82);"/>
            </g>
            <g transform="matrix(0.266072,0,-0.124454,0.341935,729.767685,906.454794)">
                <path d="M993,1139.2L993,1281.8C993,1285.222 989.43,1288 985.032,1288L790.968,1288C786.57,1288 783,1285.222 783,1281.8L783,1139.2C783,1135.778 786.57,1133 790.968,1133L985.032,1133C989.43,1133 993,1135.778 993,1139.2Z" style="fill:white;"/>
            </g>
            <g transform="matrix(0.275595,0,-0.124454,0.341935,571.839787,970.191342)">
                <path d="M993,1139.2L993,1281.8C993,1285.222 989.553,1288 985.308,1288L790.692,1288C786.447,1288 783,1285.222 783,1281.8L783,1139.2C783,1135.778 786.447,1133 790.692,1133L985.308,1133C989.553,1133 993,1135.778 993,1139.2Z" style="fill:white;"/>
            </g>
            <g transform="matrix(0.542262,0,-0.124454,0.341935,385.507872,906.138657)">
                <path d="M993,1139.2L993,1281.8C993,1285.222 991.248,1288 989.09,1288L786.91,1288C784.752,1288 783,1285.222 783,1281.8L783,1139.2C783,1135.778 784.752,1133 786.91,1133L989.09,1133C991.248,1133 993,1135.778 993,1139.2Z" style="fill:white;"/>
            </g>
        </g>
    </g>
</svg>
