<?xml version="1.0" encoding="UTF-8" standalone="no"?>
<!DOCTYPE svg PUBLIC "-//W3C//DTD SVG 1.1//EN" "http://www.w3.org/Graphics/SVG/1.1/DTD/svg11.dtd">
<svg width="100%" height="100%" viewBox="0 0 526 361" version="1.1" xmlns="http://www.w3.org/2000/svg" xmlns:xlink="http://www.w3.org/1999/xlink" xml:space="preserve" xmlns:serif="http://www.serif.com/" style="fill-rule:evenodd;clip-rule:evenodd;stroke-linejoin:round;stroke-miterlimit:2;">
    <g transform="matrix(1,0,0,1,-2268.153625,-1251.032403)">
        <g transform="matrix(1,0,0,1,1791.397982,85.938512)">
            <g transform="matrix(0.3375,0,-0.124454,0.341935,569.252677,841.810811)">
                <path d="M993,1139.2L993,1281.8C993,1285.222 990.185,1288 986.719,1288L789.281,1288C785.815,1288 783,1285.222 783,1281.8L783,1139.2C783,1135.778 785.815,1133 789.281,1133L986.719,1133C990.185,1133 993,1135.778 993,1139.2Z" style="fill:white;"/>
            </g>
            <g transform="matrix(0.889881,0,-0.124454,0.341935,159.168594,777.680987)">
                <path d="M993,1139.2L993,1281.8C993,1285.222 991.933,1288 990.618,1288L785.382,1288C784.067,1288 783,1285.222 783,1281.8L783,1139.2C783,1135.778 784.067,1133 785.382,1133L990.618,1133C991.933,1133 993,1135.778 993,1139.2Z" style="fill:white;"/>
            </g>
            <g transform="matrix(0.332738,0,-0.124454,0.341935,712.742848,841.884791)">
                <path d="M993,1139.2L993,1281.8C993,1285.222 990.145,1288 986.629,1288L789.371,1288C785.855,1288 783,1285.222 783,1281.8L783,1139.2C783,1135.778 785.855,1133 789.371,1133L986.629,1133C990.145,1133 993,1135.778 993,1139.2Z" style="fill:rgb(229,254,82);"/>
            </g>
            <g transform="matrix(0.266072,0,-0.124454,0.341935,729.767685,906.454794)">
                <path d="M993,1139.2L993,1281.8C993,1285.222 989.43,1288 985.032,1288L790.968,1288C786.57,1288 783,1285.222 783,1281.8L783,1139.2C783,1135.778 786.57,1133 790.968,1133L985.032,1133C989.43,1133 993,1135.778 993,1139.2Z" style="fill:white;"/>
            </g>
            <g transform="matrix(0.275595,0,-0.124454,0.341935,571.839787,970.191342)">
                <path d="M993,1139.2L993,1281.8C993,1285.222 989.553,1288 985.308,1288L790.692,1288C786.447,1288 783,1285.222 783,1281.8L783,1139.2C783,1135.778 786.447,1133 790.692,1133L985.308,1133C989.553,1133 993,1135.778 993,1139.2Z" style="fill:white;"/>
            </g>
            <g transform="matrix(0.542262,0,-0.124454,0.341935,385.507872,906.138657)">
                <path d="M993,1139.2L993,1281.8C993,1285.222 991.248,1288 989.09,1288L786.91,1288C784.752,1288 783,1285.222 783,1281.8L783,1139.2C783,1135.778 784.752,1133 786.91,1133L989.09,1133C991.248,1133 993,1135.778 993,1139.2Z" style="fill:white;"/>
            </g>
        </g>
        <g transform="matrix(1,0,0,1,1791.397982,85.938512)">
            <g transform="matrix(6.982629,0,0,6.982629,-758.692261,-764.383709)">
                <g transform="matrix(12,0,0,12,177.088935,327.801869)">
                    <path d="M0.138,-0.729L0.41,-0.729C0.497,-0.729 0.563,-0.709 0.606,-0.669C0.65,-0.629 0.671,-0.574 0.668,-0.504C0.667,-0.451 0.654,-0.405 0.628,-0.365C0.602,-0.326 0.567,-0.295 0.522,-0.274C0.476,-0.252 0.425,-0.241 0.367,-0.241L0.197,-0.241L0.224,-0.376L0.352,-0.376C0.395,-0.376 0.428,-0.387 0.454,-0.408C0.479,-0.429 0.491,-0.458 0.491,-0.495C0.491,-0.523 0.482,-0.545 0.463,-0.56C0.445,-0.575 0.419,-0.582 0.387,-0.582L0.269,-0.582L0.284,-0.595L0.161,-0L-0.013,-0L0.138,-0.729Z" style="fill:white;fill-rule:nonzero;"/>
                </g>
                <g transform="matrix(12,0,0,12,183.976882,327.801869)">
                    <path d="M0.359,-0.729L0.579,-0.729L0.693,-0L0.519,-0L0.452,-0.456L0.436,-0.558L0.432,-0.558L0.378,-0.457L0.125,-0L-0.056,-0L0.359,-0.729ZM0.256,-0.286L0.5,-0.286L0.513,-0.151L0.191,-0.151L0.256,-0.286Z" style="fill:white;fill-rule:nonzero;"/>
                </g>
                <g transform="matrix(12,0,0,12,192.37681,327.801869)">
                    <path d="M0.377,0.009C0.303,0.009 0.241,-0.005 0.19,-0.033C0.138,-0.061 0.1,-0.1 0.073,-0.151C0.047,-0.202 0.035,-0.261 0.037,-0.329C0.039,-0.411 0.057,-0.482 0.091,-0.544C0.126,-0.606 0.173,-0.653 0.232,-0.687C0.292,-0.721 0.359,-0.737 0.435,-0.737C0.5,-0.737 0.558,-0.726 0.608,-0.703C0.658,-0.681 0.697,-0.649 0.724,-0.608C0.752,-0.567 0.766,-0.52 0.766,-0.467L0.591,-0.467C0.589,-0.492 0.582,-0.513 0.568,-0.532C0.554,-0.551 0.536,-0.565 0.513,-0.576C0.49,-0.587 0.463,-0.592 0.434,-0.592C0.391,-0.592 0.354,-0.581 0.322,-0.56C0.289,-0.538 0.264,-0.507 0.246,-0.468C0.228,-0.429 0.217,-0.383 0.215,-0.331C0.214,-0.288 0.219,-0.253 0.232,-0.224C0.244,-0.195 0.262,-0.173 0.286,-0.159C0.309,-0.144 0.337,-0.137 0.369,-0.136C0.416,-0.136 0.455,-0.147 0.487,-0.169C0.519,-0.191 0.541,-0.222 0.552,-0.262L0.73,-0.262C0.72,-0.207 0.7,-0.159 0.667,-0.118C0.635,-0.077 0.594,-0.046 0.544,-0.024C0.494,-0.002 0.439,0.009 0.377,0.009Z" style="fill:white;fill-rule:nonzero;"/>
                </g>
                <g transform="matrix(12,0,0,12,201.23268,327.801869)">
                    <path d="M0.138,-0.729L0.661,-0.729L0.63,-0.58L0.24,-0.58L0.288,-0.62L0.183,-0.11L0.152,-0.149L0.543,-0.149L0.513,-0L-0.013,-0L0.138,-0.729ZM0.211,-0.437L0.553,-0.437L0.524,-0.298L0.183,-0.298L0.211,-0.437Z" style="fill:white;fill-rule:nonzero;"/>
                </g>
                <g transform="matrix(12,0,0,12,208.192519,327.801869)">
                </g>
            </g>
        </g>
        <g transform="matrix(1,0,0,1,1791.397982,85.938512)">
            <g transform="matrix(6.982629,0,0,6.982629,-520.036182,-765.383709)">
                <g transform="matrix(12,0,0,12,177.088935,327.801869)">
                    <path d="M0.359,-0.729L0.579,-0.729L0.693,-0L0.519,-0L0.452,-0.456L0.436,-0.558L0.432,-0.558L0.378,-0.457L0.125,-0L-0.056,-0L0.359,-0.729ZM0.256,-0.286L0.5,-0.286L0.513,-0.151L0.191,-0.151L0.256,-0.286Z" style="fill:rgb(229,254,82);fill-rule:nonzero;"/>
                </g>
                <g transform="matrix(12,0,0,12,186.028863,327.801869)">
                    <path d="M0.138,-0.729L0.463,-0.729C0.521,-0.729 0.57,-0.718 0.609,-0.697C0.648,-0.675 0.675,-0.647 0.69,-0.61C0.706,-0.574 0.708,-0.535 0.698,-0.491C0.69,-0.453 0.673,-0.421 0.646,-0.394C0.619,-0.367 0.584,-0.348 0.543,-0.338L0.542,-0.332C0.575,-0.32 0.598,-0.302 0.61,-0.278C0.622,-0.255 0.624,-0.224 0.617,-0.187L0.593,-0.07C0.588,-0.049 0.585,-0.034 0.585,-0.025C0.585,-0.016 0.585,-0.008 0.587,-0L0.413,-0C0.412,-0.008 0.412,-0.017 0.413,-0.027C0.414,-0.037 0.416,-0.049 0.419,-0.063L0.441,-0.166C0.446,-0.19 0.446,-0.209 0.442,-0.223C0.438,-0.237 0.43,-0.247 0.419,-0.253C0.407,-0.259 0.392,-0.261 0.373,-0.261L0.198,-0.261L0.227,-0.399L0.4,-0.399C0.433,-0.399 0.46,-0.407 0.482,-0.422C0.503,-0.436 0.516,-0.457 0.522,-0.482C0.526,-0.502 0.526,-0.52 0.52,-0.536C0.515,-0.553 0.504,-0.566 0.488,-0.576C0.472,-0.585 0.452,-0.59 0.428,-0.59L0.281,-0.59L0.16,-0L-0.013,-0L0.138,-0.729Z" style="fill:rgb(229,254,82);fill-rule:nonzero;"/>
                </g>
                <g transform="matrix(12,0,0,12,194.056841,327.801869)">
                    <path d="M0.138,-0.729L0.661,-0.729L0.63,-0.58L0.24,-0.58L0.288,-0.62L0.183,-0.11L0.152,-0.149L0.543,-0.149L0.513,-0L-0.013,-0L0.138,-0.729ZM0.211,-0.437L0.553,-0.437L0.524,-0.298L0.183,-0.298L0.211,-0.437Z" style="fill:rgb(229,254,82);fill-rule:nonzero;"/>
                </g>
                <g transform="matrix(12,0,0,12,201.00468,327.801869)">
                    <path d="M0.138,-0.729L0.335,-0.729L0.505,-0.25L0.512,-0.25L0.547,-0.462L0.602,-0.729L0.773,-0.729L0.622,-0L0.425,-0L0.256,-0.474L0.249,-0.474L0.216,-0.27L0.16,-0L-0.013,-0L0.138,-0.729Z" style="fill:rgb(229,254,82);fill-rule:nonzero;"/>
                </g>
                <g transform="matrix(12,0,0,12,209.632596,327.801869)">
                    <path d="M0.359,-0.729L0.579,-0.729L0.693,-0L0.519,-0L0.452,-0.456L0.436,-0.558L0.432,-0.558L0.378,-0.457L0.125,-0L-0.056,-0L0.359,-0.729ZM0.256,-0.286L0.5,-0.286L0.513,-0.151L0.191,-0.151L0.256,-0.286Z" style="fill:rgb(229,254,82);fill-rule:nonzero;"/>
                </g>
                <g transform="matrix(12,0,0,12,218.596524,327.801869)">
                </g>
            </g>
        </g>
    </g>
</svg>
